# xmcd
#
# Track frame offsets:
#	150
#	58662
#	136071
#	184328
#	205939
#	237889
#	277684
#	304600
#
# Disc length: 4480 seconds
#
# Revision: 1
# Processed by: cddbd v1.5.2PL0 Copyright (c) Steve Scherf et al.
# Submitted via: audiograbber 1.83.01
#
DISCID=68117e08
DTITLE=Grateful Dead - 76-06-09 Boston Music Hall, Boston MA
DYEAR=1900
DGENRE=
TTITLE0=St Stephen
TTITLE1=Eyes Of The World
TTITLE2=Let It Grow
TTITLE3=Brown Eyed Women
TTITLE4=Lazy Lightening > Supplication
TTITLE5=High Time
TTITLE6=Samson and Delilah
TTITLE7=It Must Have Been The Roses
EXTD=
EXTT0=
EXTT1=
EXTT2=
EXTT3=
EXTT4=
EXTT5=
EXTT6=
EXTT7=
PLAYORDER=
